  0
SECTION
  2
HEADER
  9
$ACADVER
  1
AC1014
  9
$HANDSEED
  5
FFFF
  9
$INSUNITS
 70
     0
  9
$MEASUREMENT
 70
     1
  0
ENDSEC
  0
SECTION
  2
TABLES
  0
TABLE
  2
VPORT
  5
8
330
0
100
AcDbSymbolTable
 70
     4
  0
VPORT
  5
2E
330
8
100
AcDbSymbolTableRecord
100
AcDbViewportTableRecord
  2
*ACTIVE
 70
     0
 10
0.0
 20
0.0
 11
1.0
 21
1.0
 12
210.0
 22
148.5
 13
0.0
 23
0.0
 14
10.0
 24
10.0
 15
10.0
 25
10.0
 16
0.0
 26
0.0
 36
1.0
 17
0.0
 27
0.0
 37
0.0
 40
341.0
 41
1.24
 42
50.0
 43
0.0
 44
0.0
 50
0.0
 51
0.0
 71
     0
 72
   100
 73
     1
 74
     3
 75
     0
 76
     0
 77
     0
 78
     0
  0
ENDTAB
  0
TABLE
  2
LTYPE
  5
5
330
0
100
AcDbSymbolTable
 70
     1
  0
LTYPE
  5
14
330
5
100
AcDbSymbolTableRecord
100
AcDbLinetypeTableRecord
  2
BYBLOCK
 70
     0
  3

 72
    65
 73
     0
 40
0.0
  0
LTYPE
  5
15
330
5
100
AcDbSymbolTableRecord
100
AcDbLinetypeTableRecord
  2
BYLAYER
 70
     0
  3

 72
    65
 73
     0
 40
0.0
  0
LTYPE
  5
16
330
5
100
AcDbSymbolTableRecord
100
AcDbLinetypeTableRecord
  2
CONTINUOUS
 70
     0
  3
Solid line
 72
    65
 73
     0
 40
0.0
  0
ENDTAB
  0
TABLE
  2
LAYER
  5
2
100
AcDbSymbolTable
 70
1
  0
LAYER
  5
50
100
AcDbSymbolTableRecord
100
AcDbLayerTableRecord
  2
0
 70
0
  6
CONTINUOUS
  0
ENDTAB
  0
TABLE
  2
STYLE
  5
3
330
0
100
AcDbSymbolTable
 70
     1
  0
STYLE
  5
11
330
3
100
AcDbSymbolTableRecord
100
AcDbTextStyleTableRecord
  2
STANDARD
 70
     0
 40
0.0
 41
1.0
 50
0.0
 71
     0
 42
2.5
  3
txt
  4

  0
ENDTAB
  0
TABLE
  2
VIEW
  5
6
330
0
100
AcDbSymbolTable
 70
     0
  0
ENDTAB
  0
TABLE
  2
UCS
  5
7
330
0
100
AcDbSymbolTable
 70
     0
  0
ENDTAB
  0
TABLE
  2
APPID
  5
9
330
0
100
AcDbSymbolTable
 70
     2
  0
APPID
  5
12
330
9
100
AcDbSymbolTableRecord
100
AcDbRegAppTableRecord
  2
ACAD
 70
     0
  0
ENDTAB
  0
TABLE
  2
DIMSTYLE
  5
A
330
0
100
AcDbSymbolTable
 70
     1
  0
DIMSTYLE
105
27
330
A
100
AcDbSymbolTableRecord
100
AcDbDimStyleTableRecord
  2
ISO-25
 70
     0
  3

  4

  5

  6

  7

 40
1.0
 41
2.5
 42
0.625
 43
3.75
 44
1.25
 45
0.0
 46
0.0
 47
0.0
 48
0.0
140
2.5
141
2.5
142
0.0
143
0.03937007874016
144
1.0
145
0.0
146
1.0
147
0.625
 71
     0
 72
     0
 73
     0
 74
     0
 75
     0
 76
     0
 77
     1
 78
     8
170
     0
171
     3
172
     1
173
     0
174
     0
175
     0
176
     0
177
     0
178
     0
270
     2
271
     2
272
     2
273
     2
274
     3
340
11
275
     0
280
     0
281
     0
282
     0
283
     0
284
     8
285
     0
286
     0
287
     3
288
     0
  0
ENDTAB
  0
TABLE
  2
BLOCK_RECORD
  5
1
330
0
100
AcDbSymbolTable
 70
     1
  0
BLOCK_RECORD
  5
1F
330
1
100
AcDbSymbolTableRecord
100
AcDbBlockTableRecord
  2
*MODEL_SPACE
  0
BLOCK_RECORD
  5
1B
330
1
100
AcDbSymbolTableRecord
100
AcDbBlockTableRecord
  2
*PAPER_SPACE
  0
ENDTAB
  0
ENDSEC
  0
SECTION
  2
BLOCKS
  0
BLOCK
  5
20
330
1F
100
AcDbEntity
  8
0
100
AcDbBlockBegin
  2
*MODEL_SPACE
 70
     0
 10
0.0
 20
0.0
 30
0.0
  3
*MODEL_SPACE
  1

  0
ENDBLK
  5
21
330
1F
100
AcDbEntity
  8
0
100
AcDbBlockEnd
  0
BLOCK
  5
1C
330
1B
100
AcDbEntity
 67
     1
  8
0
100
AcDbBlockBegin
  2
*PAPER_SPACE
  1

  0
ENDBLK
  5
1D
330
1B
100
AcDbEntity
 67
     1
  8
0
100
AcDbBlockEnd
  0
ENDSEC
  0
SECTION
  2
ENTITIES
  0
LWPOLYLINE
  5
100
100
AcDbEntity
  8
0
 62
7
100
AcDbPolyline
 90
80
 70
1
 10
179.700000
 20
40.200000
 30
0.0
 10
178.075000
 20
35.487500
 30
0.0
 10
176.450000
 20
30.775000
 30
0.0
 10
174.825000
 20
26.062500
 30
0.0
 10
173.200000
 20
21.350000
 30
0.0
 10
171.575000
 20
16.637500
 30
0.0
 10
169.950000
 20
11.925000
 30
0.0
 10
168.325000
 20
7.212500
 30
0.0
 10
166.700000
 20
2.500000
 30
0.0
 10
168.459760
 20
2.405500
 30
0.0
 10
173.296870
 20
2.156280
 30
0.0
 10
180.548050
 20
1.803940
 30
0.0
 10
189.550000
 20
1.400030
 30
0.0
 10
199.639450
 20
0.996120
 30
0.0
 10
210.153120
 20
0.643780
 30
0.0
 10
220.427730
 20
0.394560
 30
0.0
 10
229.800000
 20
0.300060
 30
0.0
 10
240.969920
 20
0.107090
 30
0.0
 10
255.953120
 20
-0.024940
 30
0.0
 10
273.059770
 20
0.574280
 30
0.0
 10
290.600000
 20
2.575060
 30
0.0
 10
306.883980
 20
6.647720
 30
0.0
 10
320.221870
 20
13.462560
 30
0.0
 10
328.923830
 20
23.689910
 30
0.0
 10
331.300000
 20
38.000000
 30
0.0
 10
326.640430
 20
52.231840
 30
0.0
 10
316.598440
 20
62.398440
 30
0.0
 10
303.029100
 20
69.431450
 30
0.0
 10
287.787500
 20
74.262500
 30
0.0
 10
272.728710
 20
77.823240
 30
0.0
 10
259.707810
 20
81.045310
 30
0.0
 10
250.579880
 20
84.860350
 30
0.0
 10
247.200000
 20
90.200000
 30
0.0
 10
251.802150
 20
93.670510
 30
0.0
 10
263.748440
 20
95.914060
 30
0.0
 10
280.586130
 20
97.166210
 30
0.0
 10
299.862500
 20
97.662500
 30
0.0
 10
319.124800
 20
97.638500
 30
0.0
 10
335.920310
 20
97.329720
 30
0.0
 10
347.796290
 20
96.971720
 30
0.0
 10
352.300000
 20
96.800030
 30
0.0
 10
353.387500
 20
99.512530
 30
0.0
 10
354.475000
 20
102.225030
 30
0.0
 10
355.562500
 20
104.937530
 30
0.0
 10
356.650000
 20
107.650030
 30
0.0
 10
357.737500
 20
110.362530
 30
0.0
 10
358.825000
 20
113.075030
 30
0.0
 10
359.912500
 20
115.787530
 30
0.0
 10
361.000000
 20
118.500000
 30
0.0
 10
354.242380
 20
118.913480
 30
0.0
 10
336.432810
 20
119.632810
 30
0.0
 10
311.266210
 20
119.876370
 30
0.0
 10
282.437500
 20
118.862500
 30
0.0
 10
253.641600
 20
115.809570
 30
0.0
 10
228.573440
 20
109.935940
 30
0.0
 10
210.927930
 20
100.459960
 30
0.0
 10
204.400000
 20
86.600000
 30
0.0
 10
207.446480
 20
75.525390
 30
0.0
 10
215.159370
 20
66.946870
 30
0.0
 10
225.961320
 20
60.369920
 30
0.0
 10
238.275000
 20
55.300000
 30
0.0
 10
250.523050
 20
51.242580
 30
0.0
 10
261.128120
 20
47.703120
 30
0.0
 10
268.512890
 20
44.187100
 30
0.0
 10
271.100000
 20
40.200000
 30
0.0
 10
269.294140
 20
37.600780
 30
0.0
 10
264.715620
 20
35.868750
 30
0.0
 10
257.948050
 20
34.877340
 30
0.0
 10
249.575000
 20
34.500000
 30
0.0
 10
240.180080
 20
34.610160
 30
0.0
 10
230.346870
 20
35.081250
 30
0.0
 10
220.658980
 20
35.786720
 30
0.0
 10
211.700000
 20
36.600000
 30
0.0
 10
203.865040
 20
37.386330
 30
0.0
 10
197.207810
 20
38.090620
 30
0.0
 10
191.687300
 20
38.705860
 30
0.0
 10
187.262500
 20
39.225000
 30
0.0
 10
183.892380
 20
39.641020
 30
0.0
 10
181.535940
 20
39.946880
 30
0.0
 10
180.152150
 20
40.135550
 30
0.0
  0
LWPOLYLINE
  5
101
100
AcDbEntity
  8
0
 62
7
100
AcDbPolyline
 90
32
 70
1
 10
442.100000
 20
115.600000
 30
0.0
 10
435.854880
 20
116.319340
 30
0.0
 10
429.264060
 20
116.967190
 30
0.0
 10
422.319330
 20
117.528320
 30
0.0
 10
415.012500
 20
117.987500
 30
0.0
 10
407.335350
 20
118.329490
 30
0.0
 10
399.279690
 20
118.539060
 30
0.0
 10
390.837300
 20
118.600960
 30
0.0
 10
382.000000
 20
118.500000
 30
0.0
 10
381.075000
 20
115.887500
 30
0.0
 10
380.150000
 20
113.275000
 30
0.0
 10
379.225000
 20
110.662500
 30
0.0
 10
378.300000
 20
108.050000
 30
0.0
 10
377.375000
 20
105.437500
 30
0.0
 10
376.450000
 20
102.825000
 30
0.0
 10
375.525000
 20
100.212500
 30
0.0
 10
374.600000
 20
97.600000
 30
0.0
 10
376.273050
 20
97.543600
 30
0.0
 10
379.003120
 20
97.429720
 30
0.0
 10
382.619140
 20
97.229110
 30
0.0
 10
386.950000
 20
96.912530
 30
0.0
 10
391.824610
 20
96.450620
 30
0.0
 10
397.071870
 20
95.814090
 30
0.0
 10
402.520700
 20
94.973660
 30
0.0
 10
408.000000
 20
93.900000
 30
0.0
 10
412.262500
 20
96.612500
 30
0.0
 10
416.525000
 20
99.325000
 30
0.0
 10
420.787500
 20
102.037500
 30
0.0
 10
425.050000
 20
104.750000
 30
0.0
 10
429.312500
 20
107.462500
 30
0.0
 10
433.575000
 20
110.175000
 30
0.0
 10
437.837500
 20
112.887500
 30
0.0
  0
LWPOLYLINE
  5
102
100
AcDbEntity
  8
0
 62
7
100
AcDbPolyline
 90
32
 70
1
 10
485.600000
 20
106.200000
 30
0.0
 10
483.865430
 20
106.766990
 30
0.0
 10
482.035940
 20
107.342190
 30
0.0
 10
480.110350
 20
107.924420
 30
0.0
 10
478.087500
 20
108.512500
 30
0.0
 10
475.966210
 20
109.105280
 30
0.0
 10
473.745310
 20
109.701560
 30
0.0
 10
471.423630
 20
110.300190
 30
0.0
 10
469.000000
 20
110.900000
 30
0.0
 10
462.987500
 20
108.287500
 30
0.0
 10
456.975000
 20
105.675000
 30
0.0
 10
450.962500
 20
103.062500
 30
0.0
 10
444.950000
 20
100.450000
 30
0.0
 10
438.937500
 20
97.837500
 30
0.0
 10
432.925000
 20
95.225000
 30
0.0
 10
426.912500
 20
92.612500
 30
0.0
 10
420.900000
 20
90.000000
 30
0.0
 10
421.752730
 20
89.615820
 30
0.0
 10
422.584370
 20
89.214060
 30
0.0
 10
423.392580
 20
88.795890
 30
0.0
 10
424.175000
 20
88.362500
 30
0.0
 10
424.929300
 20
87.915040
 30
0.0
 10
425.653120
 20
87.454690
 30
0.0
 10
426.344140
 20
86.982620
 30
0.0
 10
427.000000
 20
86.500000
 30
0.0
 10
434.325000
 20
88.962500
 30
0.0
 10
441.650000
 20
91.425000
 30
0.0
 10
448.975000
 20
93.887500
 30
0.0
 10
456.300000
 20
96.350000
 30
0.0
 10
463.625000
 20
98.812500
 30
0.0
 10
470.950000
 20
101.275000
 30
0.0
 10
478.275000
 20
103.737500
 30
0.0
  0
LWPOLYLINE
  5
103
100
AcDbEntity
  8
0
 62
7
100
AcDbPolyline
 90
56
 70
1
 10
501.600000
 20
99.400000
 30
0.0
 10
492.812500
 20
97.150000
 30
0.0
 10
484.025000
 20
94.900000
 30
0.0
 10
475.237500
 20
92.650000
 30
0.0
 10
466.450000
 20
90.400000
 30
0.0
 10
457.662500
 20
88.150000
 30
0.0
 10
448.875000
 20
85.900000
 30
0.0
 10
440.087500
 20
83.650000
 30
0.0
 10
431.300000
 20
81.400000
 30
0.0
 10
431.515240
 20
80.940820
 30
0.0
 10
431.709380
 20
80.464060
 30
0.0
 10
431.880080
 20
79.970900
 30
0.0
 10
432.025000
 20
79.462500
 30
0.0
 10
432.141800
 20
78.940040
 30
0.0
 10
432.228100
 20
78.404690
 30
0.0
 10
432.281600
 20
77.857620
 30
0.0
 10
432.300000
 20
77.300000
 30
0.0
 10
430.905470
 20
70.515630
 30
0.0
 10
426.843750
 20
64.856250
 30
0.0
 10
420.297660
 20
60.200000
 30
0.0
 10
411.450000
 20
56.425000
 30
0.0
 10
400.483590
 20
53.409380
 30
0.0
 10
387.581250
 20
51.031250
 30
0.0
 10
372.925760
 20
49.168750
 30
0.0
 10
356.700000
 20
47.700000
 30
0.0
 10
356.700000
 20
47.675000
 30
0.0
 10
356.700000
 20
47.650000
 30
0.0
 10
356.700000
 20
47.625000
 30
0.0
 10
356.700000
 20
47.600000
 30
0.0
 10
356.700000
 20
47.575000
 30
0.0
 10
356.700000
 20
47.550000
 30
0.0
 10
356.700000
 20
47.525000
 30
0.0
 10
356.700000
 20
47.500000
 30
0.0
 10
354.612500
 20
41.612500
 30
0.0
 10
352.525000
 20
35.725000
 30
0.0
 10
350.437500
 20
29.837500
 30
0.0
 10
348.350000
 20
23.950000
 30
0.0
 10
346.262500
 20
18.062500
 30
0.0
 10
344.175000
 20
12.175000
 30
0.0
 10
342.087500
 20
6.287500
 30
0.0
 10
340.000000
 20
0.400000
 30
0.0
 10
347.087890
 20
0.392000
 30
0.0
 10
365.990630
 20
0.895710
 30
0.0
 10
393.166800
 20
2.704890
 30
0.0
 10
425.075000
 20
6.612900
 30
0.0
 10
458.173830
 20
13.413100
 30
0.0
 10
488.921870
 20
23.898840
 30
0.0
 10
513.777730
 20
38.863490
 30
0.0
 10
529.200000
 20
59.100000
 30
0.0
 10
531.004100
 20
67.550000
 30
0.0
 10
529.682810
 20
75.100000
 30
0.0
 10
526.048240
 20
81.712500
 30
0.0
 10
520.912500
 20
87.350000
 30
0.0
 10
515.087700
 20
91.975000
 30
0.0
 10
509.385940
 20
95.550000
 30
0.0
 10
504.619340
 20
98.037500
 30
0.0
  0
LWPOLYLINE
  5
104
100
AcDbEntity
  8
0
 62
7
100
AcDbPolyline
 90
136
 70
1
 10
63.000000
 20
59.800000
 30
0.0
 10
63.000000
 20
77.700000
 30
0.0
 10
63.000000
 20
95.600000
 30
0.0
 10
63.000000
 20
113.500000
 30
0.0
 10
63.000000
 20
131.400000
 30
0.0
 10
63.000000
 20
149.300000
 30
0.0
 10
63.000000
 20
167.200000
 30
0.0
 10
63.000000
 20
185.100000
 30
0.0
 10
63.000000
 20
203.000000
 30
0.0
 10
62.793359
 20
205.203906
 30
0.0
 10
62.171875
 20
207.281250
 30
0.0
 10
61.133203
 20
209.180469
 30
0.0
 10
59.675000
 20
210.850000
 30
0.0
 10
57.794922
 20
212.238281
 30
0.0
 10
55.490625
 20
213.293750
 30
0.0
 10
52.759766
 20
213.964844
 30
0.0
 10
49.600000
 20
214.200000
 30
0.0
 10
46.468945
 20
213.964844
 30
0.0
 10
43.751563
 20
213.293750
 30
0.0
 10
41.449024
 20
212.238281
 30
0.0
 10
39.562500
 20
210.850000
 30
0.0
 10
38.093164
 20
209.180469
 30
0.0
 10
37.042187
 20
207.281250
 30
0.0
 10
36.410742
 20
205.203906
 30
0.0
 10
36.200000
 20
203.000000
 30
0.0
 10
36.200000
 20
185.100000
 30
0.0
 10
36.200000
 20
167.200000
 30
0.0
 10
36.200000
 20
149.300000
 30
0.0
 10
36.200000
 20
131.400000
 30
0.0
 10
36.200000
 20
113.500000
 30
0.0
 10
36.200000
 20
95.600000
 30
0.0
 10
36.200000
 20
77.700000
 30
0.0
 10
36.200000
 20
59.800000
 30
0.0
 10
31.675000
 20
59.800000
 30
0.0
 10
27.150000
 20
59.800000
 30
0.0
 10
22.625000
 20
59.800000
 30
0.0
 10
18.100000
 20
59.800000
 30
0.0
 10
13.575000
 20
59.800000
 30
0.0
 10
9.050000
 20
59.800000
 30
0.0
 10
4.525000
 20
59.800000
 30
0.0
 10
0.000000
 20
59.800000
 30
0.0
 10
0.000000
 20
78.700000
 30
0.0
 10
0.000000
 20
97.600000
 30
0.0
 10
0.000000
 20
116.500000
 30
0.0
 10
0.000000
 20
135.400000
 30
0.0
 10
0.000000
 20
154.300000
 30
0.0
 10
0.000000
 20
173.200000
 30
0.0
 10
0.000000
 20
192.100000
 30
0.0
 10
0.000000
 20
211.000000
 30
0.0
 10
1.028906
 20
219.069922
 30
0.0
 10
3.956250
 20
226.284375
 30
0.0
 10
8.542969
 20
232.575391
 30
0.0
 10
14.550000
 20
237.875000
 30
0.0
 10
21.738281
 20
242.115234
 30
0.0
 10
29.868750
 20
245.228125
 30
0.0
 10
38.702344
 20
247.145703
 30
0.0
 10
48.000000
 20
247.800000
 30
0.0
 10
52.501172
 20
247.535547
 30
0.0
 10
56.971875
 20
246.771875
 30
0.0
 10
61.362891
 20
245.553516
 30
0.0
 10
65.625000
 20
243.925000
 30
0.0
 10
69.708984
 20
241.930859
 30
0.0
 10
73.565625
 20
239.615625
 30
0.0
 10
77.145703
 20
237.023828
 30
0.0
 10
80.400000
 20
234.200000
 30
0.0
 10
83.658398
 20
237.023828
 30
0.0
 10
87.248437
 20
239.615625
 30
0.0
 10
91.117383
 20
241.930859
 30
0.0
 10
95.212500
 20
243.925000
 30
0.0
 10
99.481053
 20
245.553516
 30
0.0
 10
103.870310
 20
246.771875
 30
0.0
 10
108.327540
 20
247.535547
 30
0.0
 10
112.800000
 20
247.800000
 30
0.0
 10
122.097660
 20
247.145898
 30
0.0
 10
130.931250
 20
245.229688
 30
0.0
 10
139.061720
 20
242.120508
 30
0.0
 10
146.250000
 20
237.887500
 30
0.0
 10
152.257030
 20
232.599805
 30
0.0
 10
156.843750
 20
226.326562
 30
0.0
 10
159.771090
 20
219.136914
 30
0.0
 10
160.800000
 20
211.100000
 30
0.0
 10
160.800000
 20
192.200000
 30
0.0
 10
160.800000
 20
173.300000
 30
0.0
 10
160.800000
 20
154.400000
 30
0.0
 10
160.800000
 20
135.500000
 30
0.0
 10
160.800000
 20
116.600000
 30
0.0
 10
160.800000
 20
97.700000
 30
0.0
 10
160.800000
 20
78.800000
 30
0.0
 10
160.800000
 20
59.900000
 30
0.0
 10
156.275000
 20
59.900000
 30
0.0
 10
151.750000
 20
59.900000
 30
0.0
 10
147.225000
 20
59.900000
 30
0.0
 10
142.700000
 20
59.900000
 30
0.0
 10
138.175000
 20
59.900000
 30
0.0
 10
133.650000
 20
59.900000
 30
0.0
 10
129.125000
 20
59.900000
 30
0.0
 10
124.600000
 20
59.900000
 30
0.0
 10
124.600000
 20
77.787500
 30
0.0
 10
124.600000
 20
95.675000
 30
0.0
 10
124.600000
 20
113.562500
 30
0.0
 10
124.600000
 20
131.450000
 30
0.0
 10
124.600000
 20
149.337500
 30
0.0
 10
124.600000
 20
167.225000
 30
0.0
 10
124.600000
 20
185.112500
 30
0.0
 10
124.600000
 20
203.000000
 30
0.0
 10
124.393360
 20
205.203906
 30
0.0
 10
123.771880
 20
207.281250
 30
0.0
 10
122.733210
 20
209.180470
 30
0.0
 10
121.275000
 20
210.850000
 30
0.0
 10
119.394920
 20
212.238281
 30
0.0
 10
117.090630
 20
213.293750
 30
0.0
 10
114.359770
 20
213.964845
 30
0.0
 10
111.200000
 20
214.200000
 30
0.0
 10
108.040230
 20
213.964844
 30
0.0
 10
105.309370
 20
213.293750
 30
0.0
 10
103.005080
 20
212.238282
 30
0.0
 10
101.125000
 20
210.850000
 30
0.0
 10
99.666797
 20
209.180469
 30
0.0
 10
98.628125
 20
207.281250
 30
0.0
 10
98.006641
 20
205.203906
 30
0.0
 10
97.800000
 20
203.000000
 30
0.0
 10
97.800000
 20
185.100000
 30
0.0
 10
97.800000
 20
167.200000
 30
0.0
 10
97.800000
 20
149.300000
 30
0.0
 10
97.800000
 20
131.400000
 30
0.0
 10
97.800000
 20
113.500000
 30
0.0
 10
97.800000
 20
95.600000
 30
0.0
 10
97.800000
 20
77.700000
 30
0.0
 10
97.800000
 20
59.800000
 30
0.0
 10
93.450000
 20
59.800000
 30
0.0
 10
89.100000
 20
59.800000
 30
0.0
 10
84.750000
 20
59.800000
 30
0.0
 10
80.400000
 20
59.800000
 30
0.0
 10
76.050000
 20
59.800000
 30
0.0
 10
71.700000
 20
59.800000
 30
0.0
 10
67.350000
 20
59.800000
 30
0.0
  0
LWPOLYLINE
  5
105
100
AcDbEntity
  8
0
 62
7
100
AcDbPolyline
 90
96
 70
1
 10
311.300000
 20
233.100000
 30
0.0
 10
310.668360
 20
227.883398
 30
0.0
 10
309.003120
 20
223.898438
 30
0.0
 10
306.648830
 20
220.979883
 30
0.0
 10
303.950000
 20
218.962500
 30
0.0
 10
301.251170
 20
217.681055
 30
0.0
 10
298.896870
 20
216.970313
 30
0.0
 10
297.231640
 20
216.665039
 30
0.0
 10
296.600000
 20
216.600000
 30
0.0
 10
294.075000
 20
216.600000
 30
0.0
 10
291.550000
 20
216.600000
 30
0.0
 10
289.025000
 20
216.600000
 30
0.0
 10
286.500000
 20
216.600000
 30
0.0
 10
283.975000
 20
216.600000
 30
0.0
 10
281.450000
 20
216.600000
 30
0.0
 10
278.925000
 20
216.600000
 30
0.0
 10
276.400000
 20
216.600000
 30
0.0
 10
269.980080
 20
216.099219
 30
0.0
 10
264.378130
 20
214.656250
 30
0.0
 10
259.605860
 20
212.360156
 30
0.0
 10
255.675000
 20
209.300000
 30
0.0
 10
252.597270
 20
205.564844
 30
0.0
 10
250.384370
 20
201.243750
 30
0.0
 10
249.048050
 20
196.425781
 30
0.0
 10
248.600000
 20
191.200000
 30
0.0
 10
249.048050
 20
185.965625
 30
0.0
 10
250.384370
 20
181.125000
 30
0.0
 10
252.597260
 20
176.771875
 30
0.0
 10
255.675000
 20
173.000000
 30
0.0
 10
259.605860
 20
169.903125
 30
0.0
 10
264.378130
 20
167.575000
 30
0.0
 10
269.980080
 20
166.109375
 30
0.0
 10
276.400000
 20
165.600000
 30
0.0
 10
278.925000
 20
165.600000
 30
0.0
 10
281.450000
 20
165.600000
 30
0.0
 10
283.975000
 20
165.600000
 30
0.0
 10
286.500000
 20
165.600000
 30
0.0
 10
289.025000
 20
165.600000
 30
0.0
 10
291.550000
 20
165.600000
 30
0.0
 10
294.075000
 20
165.600000
 30
0.0
 10
296.600000
 20
165.600000
 30
0.0
 10
297.231640
 20
165.475586
 30
0.0
 10
298.896880
 20
165.035937
 30
0.0
 10
301.251170
 20
164.181445
 30
0.0
 10
303.950000
 20
162.812500
 30
0.0
 10
306.648830
 20
160.829492
 30
0.0
 10
309.003130
 20
158.132813
 30
0.0
 10
310.668360
 20
154.622852
 30
0.0
 10
311.300000
 20
150.200000
 30
0.0
 10
310.668360
 20
145.704100
 30
0.0
 10
309.003120
 20
142.001560
 30
0.0
 10
306.648830
 20
139.032610
 30
0.0
 10
303.950000
 20
136.737500
 30
0.0
 10
301.251170
 20
135.056450
 30
0.0
 10
298.896870
 20
133.929690
 30
0.0
 10
297.231640
 20
133.297460
 30
0.0
 10
296.600000
 20
133.100000
 30
0.0
 10
293.912500
 20
133.100000
 30
0.0
 10
291.225000
 20
133.100000
 30
0.0
 10
288.537500
 20
133.100000
 30
0.0
 10
285.850000
 20
133.100000
 30
0.0
 10
283.162500
 20
133.100000
 30
0.0
 10
280.475000
 20
133.100000
 30
0.0
 10
277.787500
 20
133.100000
 30
0.0
 10
275.100000
 20
133.100000
 30
0.0
 10
263.186910
 20
134.087110
 30
0.0
 10
251.626560
 20
137.003120
 30
0.0
 10
240.799810
 20
141.780080
 30
0.0
 10
231.087500
 20
148.350000
 30
0.0
 10
222.870510
 20
156.644922
 30
0.0
 10
216.529690
 20
166.596875
 30
0.0
 10
212.445900
 20
178.137891
 30
0.0
 10
211.000000
 20
191.200000
 30
0.0
 10
212.445900
 20
204.204687
 30
0.0
 10
216.529690
 20
215.718750
 30
0.0
 10
222.870510
 20
225.667188
 30
0.0
 10
231.087500
 20
233.975000
 30
0.0
 10
240.799810
 20
240.567187
 30
0.0
 10
251.626560
 20
245.368750
 30
0.0
 10
263.186910
 20
248.304688
 30
0.0
 10
275.100000
 20
249.300000
 30
0.0
 10
277.787500
 20
249.300000
 30
0.0
 10
280.475000
 20
249.300000
 30
0.0
 10
283.162500
 20
249.300000
 30
0.0
 10
285.850000
 20
249.300000
 30
0.0
 10
288.537500
 20
249.300000
 30
0.0
 10
291.225000
 20
249.300000
 30
0.0
 10
293.912500
 20
249.300000
 30
0.0
 10
296.600000
 20
249.300000
 30
0.0
 10
297.231640
 20
249.219141
 30
0.0
 10
298.896880
 20
248.934375
 30
0.0
 10
301.251170
 20
248.269922
 30
0.0
 10
303.950000
 20
247.050000
 30
0.0
 10
306.648830
 20
245.098828
 30
0.0
 10
309.003130
 20
242.240625
 30
0.0
 10
310.668360
 20
238.299609
 30
0.0
  0
LWPOLYLINE
  5
106
100
AcDbEntity
  8
0
 62
7
100
AcDbPolyline
 90
32
 70
1
 10
476.400000
 20
249.300000
 30
0.0
 10
490.431440
 20
248.045117
 30
0.0
 10
502.101560
 20
244.473437
 30
0.0
 10
511.561520
 20
238.874413
 30
0.0
 10
518.962500
 20
231.537500
 30
0.0
 10
524.455670
 20
222.752149
 30
0.0
 10
528.192190
 20
212.807813
 30
0.0
 10
530.323240
 20
201.993945
 30
0.0
 10
531.000000
 20
190.600000
 30
0.0
 10
530.315040
 20
179.233203
 30
0.0
 10
528.164060
 20
168.553125
 30
0.0
 10
524.402930
 20
158.815234
 30
0.0
 10
518.887500
 20
150.275000
 30
0.0
 10
511.473630
 20
143.187890
 30
0.0
 10
502.017190
 20
137.809380
 30
0.0
 10
490.374020
 20
134.394920
 30
0.0
 10
476.400000
 20
133.200000
 30
0.0
 10
462.560940
 20
134.390620
 30
0.0
 10
450.962500
 20
137.793750
 30
0.0
 10
441.482810
 20
143.156250
 30
0.0
 10
434.000000
 20
150.225000
 30
0.0
 10
428.392190
 20
158.746875
 30
0.0
 10
424.537500
 20
168.468750
 30
0.0
 10
422.314060
 20
179.137500
 30
0.0
 10
421.600000
 20
190.500000
 30
0.0
 10
422.285350
 20
201.926953
 30
0.0
 10
424.439060
 20
212.765625
 30
0.0
 10
428.207620
 20
222.727734
 30
0.0
 10
433.737500
 20
231.525000
 30
0.0
 10
441.175200
 20
238.869141
 30
0.0
 10
450.667190
 20
244.471875
 30
0.0
 10
462.359960
 20
248.044922
 30
0.0
  0
LWPOLYLINE
  5
107
100
AcDbEntity
  8
0
 62
7
100
AcDbPolyline
 90
32
 70
1
 10
476.400000
 20
163.900000
 30
0.0
 10
482.615040
 20
164.296484
 30
0.0
 10
487.739060
 20
165.496875
 30
0.0
 10
491.852930
 20
167.517578
 30
0.0
 10
495.037500
 20
170.375000
 30
0.0
 10
497.373630
 20
174.085547
 30
0.0
 10
498.942190
 20
178.665625
 30
0.0
 10
499.824030
 20
184.131640
 30
0.0
 10
500.100000
 20
190.500000
 30
0.0
 10
499.824610
 20
196.916992
 30
0.0
 10
498.946870
 20
202.573438
 30
0.0
 10
497.389450
 20
207.440038
 30
0.0
 10
495.075000
 20
211.487500
 30
0.0
 10
491.926170
 20
214.686523
 30
0.0
 10
487.865620
 20
217.007813
 30
0.0
 10
482.816010
 20
218.422069
 30
0.0
 10
476.700000
 20
218.900000
 30
0.0
 10
470.307030
 20
218.405664
 30
0.0
 10
465.025000
 20
216.951563
 30
0.0
 10
460.774220
 20
214.581055
 30
0.0
 10
457.475000
 20
211.337500
 30
0.0
 10
455.047660
 20
207.264258
 30
0.0
 10
453.412500
 20
202.404688
 30
0.0
 10
452.489840
 20
196.802149
 30
0.0
 10
452.200000
 20
190.500000
 30
0.0
 10
452.497460
 20
184.217773
 30
0.0
 10
453.435940
 20
178.792187
 30
0.0
 10
455.084570
 20
174.217384
 30
0.0
 10
457.512500
 20
170.487500
 30
0.0
 10
460.788870
 20
167.596680
 30
0.0
 10
464.982810
 20
165.539063
 30
0.0
 10
470.163480
 20
164.308788
 30
0.0
  0
LWPOLYLINE
  5
108
100
AcDbEntity
  8
0
 62
7
100
AcDbPolyline
 90
88
 70
1
 10
317.200000
 20
132.600000
 30
0.0
 10
321.375000
 20
132.600000
 30
0.0
 10
325.550000
 20
132.600000
 30
0.0
 10
329.725000
 20
132.600000
 30
0.0
 10
333.900000
 20
132.600000
 30
0.0
 10
338.075000
 20
132.600000
 30
0.0
 10
342.250000
 20
132.600000
 30
0.0
 10
346.425000
 20
132.600000
 30
0.0
 10
350.600000
 20
132.600000
 30
0.0
 10
350.600000
 20
142.000000
 30
0.0
 10
350.600000
 20
151.400000
 30
0.0
 10
350.600000
 20
160.800000
 30
0.0
 10
350.600000
 20
170.200000
 30
0.0
 10
350.600000
 20
179.600000
 30
0.0
 10
350.600000
 20
189.000000
 30
0.0
 10
350.600000
 20
198.400000
 30
0.0
 10
350.600000
 20
207.800000
 30
0.0
 10
350.604000
 20
208.384375
 30
0.0
 10
350.747950
 20
209.925000
 30
0.0
 10
351.227050
 20
212.103124
 30
0.0
 10
352.237500
 20
214.600000
 30
0.0
 10
353.974020
 20
217.096875
 30
0.0
 10
356.632810
 20
219.275000
 30
0.0
 10
360.409570
 20
220.815625
 30
0.0
 10
365.500000
 20
221.400000
 30
0.0
 10
370.079100
 20
221.120703
 30
0.0
 10
373.876560
 20
220.384375
 30
0.0
 10
376.945120
 20
219.343359
 30
0.0
 10
379.337500
 20
218.150000
 30
0.0
 10
381.106440
 20
216.956641
 30
0.0
 10
382.304690
 20
215.915625
 30
0.0
 10
382.984960
 20
215.179299
 30
0.0
 10
383.200000
 20
214.900000
 30
0.0
 10
383.200000
 20
213.650000
 30
0.0
 10
383.200000
 20
212.400000
 30
0.0
 10
383.200000
 20
211.150000
 30
0.0
 10
383.200000
 20
209.900000
 30
0.0
 10
383.200000
 20
208.650000
 30
0.0
 10
383.200000
 20
207.400000
 30
0.0
 10
383.200000
 20
206.150000
 30
0.0
 10
383.200000
 20
204.900000
 30
0.0
 10
383.357230
 20
204.534766
 30
0.0
 10
383.895310
 20
203.571875
 30
0.0
 10
384.913860
 20
202.210547
 30
0.0
 10
386.512500
 20
200.650000
 30
0.0
 10
388.790820
 20
199.089453
 30
0.0
 10
391.848440
 20
197.728125
 30
0.0
 10
395.784960
 20
196.765236
 30
0.0
 10
400.700000
 20
196.400000
 30
0.0
 10
405.563480
 20
196.756641
 30
0.0
 10
409.364060
 20
197.696875
 30
0.0
 10
412.229490
 20
199.026172
 30
0.0
 10
414.287500
 20
200.550000
 30
0.0
 10
415.665820
 20
202.073828
 30
0.0
 10
416.492190
 20
203.403125
 30
0.0
 10
416.894340
 20
204.343358
 30
0.0
 10
417.000000
 20
204.700000
 30
0.0
 10
417.000000
 20
206.025000
 30
0.0
 10
417.000000
 20
207.350000
 30
0.0
 10
417.000000
 20
208.675000
 30
0.0
 10
417.000000
 20
210.000000
 30
0.0
 10
417.000000
 20
211.325000
 30
0.0
 10
417.000000
 20
212.650000
 30
0.0
 10
417.000000
 20
213.975000
 30
0.0
 10
417.000000
 20
215.300000
 30
0.0
 10
416.926000
 20
216.791016
 30
0.0
 10
416.332830
 20
220.721875
 30
0.0
 10
414.663880
 20
226.279297
 30
0.0
 10
411.362500
 20
232.650000
 30
0.0
 10
405.872070
 20
239.020703
 30
0.0
 10
397.635940
 20
244.578125
 30
0.0
 10
386.097460
 20
248.508986
 30
0.0
 10
370.700000
 20
250.000000
 30
0.0
 10
352.811130
 20
248.397266
 30
0.0
 10
339.432810
 20
244.171875
 30
0.0
 10
329.909960
 20
238.198047
 30
0.0
 10
323.587500
 20
231.350000
 30
0.0
 10
319.810350
 20
224.501953
 30
0.0
 10
317.923440
 20
218.528125
 30
0.0
 10
317.271680
 20
214.302734
 30
0.0
 10
317.200000
 20
212.700000
 30
0.0
 10
317.200000
 20
202.687500
 30
0.0
 10
317.200000
 20
192.675000
 30
0.0
 10
317.200000
 20
182.662500
 30
0.0
 10
317.200000
 20
172.650000
 30
0.0
 10
317.200000
 20
162.637500
 30
0.0
 10
317.200000
 20
152.625000
 30
0.0
 10
317.200000
 20
142.612500
 30
0.0
  0
LWPOLYLINE
  5
109
100
AcDbEntity
  8
0
 62
7
100
AcDbPolyline
 90
32
 70
1
 10
186.800000
 20
213.400000
 30
0.0
 10
190.543550
 20
213.733008
 30
0.0
 10
194.004690
 20
214.695313
 30
0.0
 10
197.116600
 20
216.231835
 30
0.0
 10
199.812500
 20
218.287500
 30
0.0
 10
202.025590
 20
220.807227
 30
0.0
 10
203.689060
 20
223.735938
 30
0.0
 10
204.736130
 20
227.018556
 30
0.0
 10
205.100000
 20
230.600000
 30
0.0
 10
204.736130
 20
234.152734
 30
0.0
 10
203.689060
 20
237.421875
 30
0.0
 10
202.025580
 20
240.348827
 30
0.0
 10
199.812500
 20
242.875000
 30
0.0
 10
197.116600
 20
244.941797
 30
0.0
 10
194.004690
 20
246.490625
 30
0.0
 10
190.543550
 20
247.462891
 30
0.0
 10
186.800000
 20
247.800000
 30
0.0
 10
183.085160
 20
247.466992
 30
0.0
 10
179.637500
 20
246.504687
 30
0.0
 10
176.527340
 20
244.968164
 30
0.0
 10
173.825000
 20
242.912500
 30
0.0
 10
171.600780
 20
240.392773
 30
0.0
 10
169.925000
 20
237.464062
 30
0.0
 10
168.867970
 20
234.181445
 30
0.0
 10
168.500000
 20
230.600000
 30
0.0
 10
168.863870
 20
227.047266
 30
0.0
 10
169.910940
 20
223.778125
 30
0.0
 10
171.574420
 20
220.851173
 30
0.0
 10
173.787500
 20
218.325000
 30
0.0
 10
176.483400
 20
216.258203
 30
0.0
 10
179.595310
 20
214.709375
 30
0.0
 10
183.056440
 20
213.737109
 30
0.0
  0
LWPOLYLINE
  5
10a
100
AcDbEntity
  8
0
 62
7
100
AcDbPolyline
 90
40
 70
1
 10
187.700000
 20
209.800000
 30
0.0
 10
182.766410
 20
209.387500
 30
0.0
 10
178.718750
 20
208.300000
 30
0.0
 10
175.486720
 20
206.762500
 30
0.0
 10
173.000000
 20
205.000000
 30
0.0
 10
171.188280
 20
203.237500
 30
0.0
 10
169.981250
 20
201.700000
 30
0.0
 10
169.308590
 20
200.612500
 30
0.0
 10
169.100000
 20
200.200000
 30
0.0
 10
169.100000
 20
191.450000
 30
0.0
 10
169.100000
 20
182.700000
 30
0.0
 10
169.100000
 20
173.950000
 30
0.0
 10
169.100000
 20
165.200000
 30
0.0
 10
169.100000
 20
156.450000
 30
0.0
 10
169.100000
 20
147.700000
 30
0.0
 10
169.100000
 20
138.950000
 30
0.0
 10
169.100000
 20
130.200000
 30
0.0
 10
173.487500
 20
130.200000
 30
0.0
 10
177.875000
 20
130.200000
 30
0.0
 10
182.262500
 20
130.200000
 30
0.0
 10
186.650000
 20
130.200000
 30
0.0
 10
191.037500
 20
130.200000
 30
0.0
 10
195.425000
 20
130.200000
 30
0.0
 10
199.812500
 20
130.200000
 30
0.0
 10
204.200000
 20
130.200000
 30
0.0
 10
204.200000
 20
138.950000
 30
0.0
 10
204.200000
 20
147.700000
 30
0.0
 10
204.200000
 20
156.450000
 30
0.0
 10
204.200000
 20
165.200000
 30
0.0
 10
204.200000
 20
173.950000
 30
0.0
 10
204.200000
 20
182.700000
 30
0.0
 10
204.200000
 20
191.450000
 30
0.0
 10
204.200000
 20
200.200000
 30
0.0
 10
204.028320
 20
200.641211
 30
0.0
 10
203.464060
 20
201.742188
 30
0.0
 10
202.433400
 20
203.281445
 30
0.0
 10
200.862500
 20
205.037500
 30
0.0
 10
198.677540
 20
206.788867
 30
0.0
 10
195.804690
 20
208.314063
 30
0.0
 10
192.170120
 20
209.391602
 30
0.0
  0
ENDSEC
  0
SECTION
  2
OBJECTS
  0
DICTIONARY
  5
C
330
0
100
AcDbDictionary
  3
ACAD_GROUP
350
D
  3
ACAD_MLINESTYLE
350
17
  0
DICTIONARY
  5
D
330
C
100
AcDbDictionary
  0
DICTIONARY
  5
1A
330
C
100
AcDbDictionary
  0
DICTIONARY
  5
17
330
C
100
AcDbDictionary
  3
STANDARD
350
18
  0
DICTIONARY
  5
19
330
C
100
AcDbDictionary
  0
ENDSEC
  0
EOF
